<svg width="160" height="128" viewBox="0 0 160 128" fill="none" xmlns="http://www.w3.org/2000/svg">
<rect width="160" height="128" rx="15" fill="#EDEDED"/>
<g clip-path="url(#clip0_2_578)">
<path d="M70 50H68C65.7909 50 64 51.7909 64 54V60C64 62.2091 65.7909 64 68 64H70C72.2091 64 74 62.2091 74 60V54C74 51.7909 72.2091 50 70 50Z" stroke="black" stroke-width="2" stroke-linecap="round" stroke-linejoin="round"/>
<path d="M92 50H90C87.7909 50 86 51.7909 86 54V60C86 62.2091 87.7909 64 90 64H92C94.2091 64 96 62.2091 96 60V54C96 51.7909 94.2091 50 92 50Z" stroke="black" stroke-width="2" stroke-linecap="round" stroke-linejoin="round"/>
<path d="M64 54V48C64 43.7565 65.6857 39.6869 68.6863 36.6863C71.6869 33.6857 75.7565 32 80 32C84.2435 32 88.3131 33.6857 91.3137 36.6863C94.3143 39.6869 96 43.7565 96 48V54" stroke="black" stroke-width="2" stroke-linecap="round" stroke-linejoin="round"/>
</g>
<path d="M37.8761 86.8H39.4761V98H37.8761V86.8ZM31.4441 98H29.8441V86.8H31.4441V98ZM38.0201 93.008H31.2841V91.616H38.0201V93.008ZM46.3804 98.096C45.4738 98.096 44.6738 97.9093 43.9804 97.536C43.2978 97.1627 42.7644 96.6507 42.3804 96C42.0071 95.3493 41.8204 94.6027 41.8204 93.76C41.8204 92.9173 42.0018 92.1707 42.3644 91.52C42.7378 90.8693 43.2444 90.3627 43.8844 90C44.5351 89.6267 45.2658 89.44 46.0764 89.44C46.8978 89.44 47.6231 89.6213 48.2524 89.984C48.8818 90.3467 49.3724 90.8587 49.7244 91.52C50.0871 92.1707 50.2684 92.9333 50.2684 93.808C50.2684 93.872 50.2631 93.9467 50.2524 94.032C50.2524 94.1173 50.2471 94.1973 50.2364 94.272H43.0204V93.168H49.4364L48.8124 93.552C48.8231 93.008 48.7111 92.5227 48.4764 92.096C48.2418 91.6693 47.9164 91.3387 47.5004 91.104C47.0951 90.8587 46.6204 90.736 46.0764 90.736C45.5431 90.736 45.0684 90.8587 44.6524 91.104C44.2364 91.3387 43.9111 91.6747 43.6764 92.112C43.4418 92.5387 43.3244 93.0293 43.3244 93.584V93.84C43.3244 94.4053 43.4524 94.912 43.7084 95.36C43.9751 95.7973 44.3431 96.1387 44.8124 96.384C45.2818 96.6293 45.8204 96.752 46.4284 96.752C46.9298 96.752 47.3831 96.6667 47.7884 96.496C48.2044 96.3253 48.5671 96.0693 48.8764 95.728L49.7244 96.72C49.3404 97.168 48.8604 97.5093 48.2844 97.744C47.7191 97.9787 47.0844 98.096 46.3804 98.096ZM57.4309 98V96.208L57.3509 95.872V92.816C57.3509 92.1653 57.1589 91.664 56.7749 91.312C56.4016 90.9493 55.8363 90.768 55.0789 90.768C54.5776 90.768 54.0869 90.8533 53.6069 91.024C53.1269 91.184 52.7216 91.4027 52.3909 91.68L51.7509 90.528C52.1883 90.176 52.7109 89.9093 53.3189 89.728C53.9376 89.536 54.5829 89.44 55.2549 89.44C56.4176 89.44 57.3136 89.7227 57.9429 90.288C58.5723 90.8533 58.8869 91.7173 58.8869 92.88V98H57.4309ZM54.6469 98.096C54.0176 98.096 53.4629 97.9893 52.9829 97.776C52.5136 97.5627 52.1509 97.2693 51.8949 96.896C51.6389 96.512 51.5109 96.08 51.5109 95.6C51.5109 95.1413 51.6176 94.7253 51.8309 94.352C52.0549 93.9787 52.4123 93.68 52.9029 93.456C53.4043 93.232 54.0763 93.12 54.9189 93.12H57.6069V94.224H54.9829C54.2149 94.224 53.6976 94.352 53.4309 94.608C53.1643 94.864 53.0309 95.1733 53.0309 95.536C53.0309 95.952 53.1963 96.288 53.5269 96.544C53.8576 96.7893 54.3163 96.912 54.9029 96.912C55.4789 96.912 55.9803 96.784 56.4069 96.528C56.8443 96.272 57.1589 95.8987 57.3509 95.408L57.6549 96.464C57.4523 96.9653 57.0949 97.3653 56.5829 97.664C56.0709 97.952 55.4256 98.096 54.6469 98.096ZM65.2334 98.096C64.4121 98.096 63.6761 97.9147 63.0254 97.552C62.3854 97.1893 61.8788 96.6827 61.5054 96.032C61.1321 95.3813 60.9454 94.624 60.9454 93.76C60.9454 92.896 61.1321 92.144 61.5054 91.504C61.8788 90.8533 62.3854 90.3467 63.0254 89.984C63.6761 89.6213 64.4121 89.44 65.2334 89.44C65.9481 89.44 66.5934 89.6 67.1694 89.92C67.7454 90.24 68.2041 90.72 68.5454 91.36C68.8974 92 69.0734 92.8 69.0734 93.76C69.0734 94.72 68.9028 95.52 68.5614 96.16C68.2308 96.8 67.7774 97.2853 67.2014 97.616C66.6254 97.936 65.9694 98.096 65.2334 98.096ZM65.3614 96.752C65.8948 96.752 66.3748 96.6293 66.8014 96.384C67.2388 96.1387 67.5801 95.792 67.8254 95.344C68.0814 94.8853 68.2094 94.3573 68.2094 93.76C68.2094 93.152 68.0814 92.6293 67.8254 92.192C67.5801 91.744 67.2388 91.3973 66.8014 91.152C66.3748 90.9067 65.8948 90.784 65.3614 90.784C64.8174 90.784 64.3321 90.9067 63.9054 91.152C63.4788 91.3973 63.1374 91.744 62.8814 92.192C62.6254 92.6293 62.4974 93.152 62.4974 93.76C62.4974 94.3573 62.6254 94.8853 62.8814 95.344C63.1374 95.792 63.4788 96.1387 63.9054 96.384C64.3321 96.6293 64.8174 96.752 65.3614 96.752ZM68.2574 98V95.712L68.3534 93.744L68.1934 91.776V86.128H69.7294V98H68.2574ZM77.1317 98.096C76.4277 98.096 75.7824 97.936 75.1957 97.616C74.6197 97.2853 74.1557 96.8 73.8037 96.16C73.4624 95.52 73.2917 94.72 73.2917 93.76C73.2917 92.8 73.457 92 73.7877 91.36C74.129 90.72 74.5877 90.24 75.1637 89.92C75.7504 89.6 76.4064 89.44 77.1317 89.44C77.9637 89.44 78.6997 89.6213 79.3397 89.984C79.9797 90.3467 80.4864 90.8533 80.8597 91.504C81.233 92.144 81.4197 92.896 81.4197 93.76C81.4197 94.624 81.233 95.3813 80.8597 96.032C80.4864 96.6827 79.9797 97.1893 79.3397 97.552C78.6997 97.9147 77.9637 98.096 77.1317 98.096ZM72.6357 101.104V89.52H74.1077V91.808L74.0117 93.776L74.1717 95.744V101.104H72.6357ZM77.0037 96.752C77.5477 96.752 78.033 96.6293 78.4597 96.384C78.897 96.1387 79.2384 95.792 79.4837 95.344C79.7397 94.8853 79.8677 94.3573 79.8677 93.76C79.8677 93.152 79.7397 92.6293 79.4837 92.192C79.2384 91.744 78.897 91.3973 78.4597 91.152C78.033 90.9067 77.5477 90.784 77.0037 90.784C76.4704 90.784 75.985 90.9067 75.5477 91.152C75.121 91.3973 74.7797 91.744 74.5237 92.192C74.2784 92.6293 74.1557 93.152 74.1557 93.76C74.1557 94.3573 74.2784 94.8853 74.5237 95.344C74.7797 95.792 75.121 96.1387 75.5477 96.384C75.985 96.6293 76.4704 96.752 77.0037 96.752ZM88.0699 89.44C88.7633 89.44 89.3713 89.5733 89.8939 89.84C90.4273 90.1067 90.8433 90.512 91.1419 91.056C91.4406 91.6 91.5899 92.288 91.5899 93.12V98H90.0539V93.296C90.0539 92.4747 89.8513 91.856 89.4459 91.44C89.0513 91.024 88.4913 90.816 87.7659 90.816C87.2219 90.816 86.7473 90.9227 86.3419 91.136C85.9366 91.3493 85.6219 91.664 85.3979 92.08C85.1846 92.496 85.0779 93.0133 85.0779 93.632V98H83.5419V86.128H85.0779V91.808L84.7739 91.2C85.0513 90.6453 85.4779 90.2133 86.0539 89.904C86.6299 89.5947 87.3019 89.44 88.0699 89.44ZM98.0646 98.096C97.2112 98.096 96.4539 97.9093 95.7926 97.536C95.1312 97.1627 94.6086 96.6507 94.2246 96C93.8406 95.3387 93.6486 94.592 93.6486 93.76C93.6486 92.9173 93.8406 92.1707 94.2246 91.52C94.6086 90.8693 95.1312 90.3627 95.7926 90C96.4539 89.6267 97.2112 89.44 98.0646 89.44C98.9072 89.44 99.6592 89.6267 100.321 90C100.993 90.3627 101.515 90.8693 101.889 91.52C102.273 92.16 102.465 92.9067 102.465 93.76C102.465 94.6027 102.273 95.3493 101.889 96C101.515 96.6507 100.993 97.1627 100.321 97.536C99.6592 97.9093 98.9072 98.096 98.0646 98.096ZM98.0646 96.752C98.6086 96.752 99.0939 96.6293 99.5206 96.384C99.9579 96.1387 100.299 95.792 100.545 95.344C100.79 94.8853 100.913 94.3573 100.913 93.76C100.913 93.152 100.79 92.6293 100.545 92.192C100.299 91.744 99.9579 91.3973 99.5206 91.152C99.0939 90.9067 98.6086 90.784 98.0646 90.784C97.5206 90.784 97.0352 90.9067 96.6086 91.152C96.1819 91.3973 95.8406 91.744 95.5846 92.192C95.3286 92.6293 95.2006 93.152 95.2006 93.76C95.2006 94.3573 95.3286 94.8853 95.5846 95.344C95.8406 95.792 96.1819 96.1387 96.6086 96.384C97.0352 96.6293 97.5206 96.752 98.0646 96.752ZM109.117 89.44C109.81 89.44 110.418 89.5733 110.941 89.84C111.474 90.1067 111.89 90.512 112.189 91.056C112.487 91.6 112.637 92.288 112.637 93.12V98H111.101V93.296C111.101 92.4747 110.898 91.856 110.493 91.44C110.098 91.024 109.538 90.816 108.813 90.816C108.269 90.816 107.794 90.9227 107.389 91.136C106.983 91.3493 106.669 91.664 106.445 92.08C106.231 92.496 106.125 93.0133 106.125 93.632V98H104.589V89.52H106.061V91.808L105.821 91.2C106.098 90.6453 106.525 90.2133 107.101 89.904C107.677 89.5947 108.349 89.44 109.117 89.44ZM119.255 98.096C118.349 98.096 117.549 97.9093 116.855 97.536C116.173 97.1627 115.639 96.6507 115.255 96C114.882 95.3493 114.695 94.6027 114.695 93.76C114.695 92.9173 114.877 92.1707 115.239 91.52C115.613 90.8693 116.119 90.3627 116.759 90C117.41 89.6267 118.141 89.44 118.951 89.44C119.773 89.44 120.498 89.6213 121.127 89.984C121.757 90.3467 122.247 90.8587 122.599 91.52C122.962 92.1707 123.143 92.9333 123.143 93.808C123.143 93.872 123.138 93.9467 123.127 94.032C123.127 94.1173 123.122 94.1973 123.111 94.272H115.895V93.168H122.311L121.687 93.552C121.698 93.008 121.586 92.5227 121.351 92.096C121.117 91.6693 120.791 91.3387 120.375 91.104C119.97 90.8587 119.495 90.736 118.951 90.736C118.418 90.736 117.943 90.8587 117.527 91.104C117.111 91.3387 116.786 91.6747 116.551 92.112C116.317 92.5387 116.199 93.0293 116.199 93.584V93.84C116.199 94.4053 116.327 94.912 116.583 95.36C116.85 95.7973 117.218 96.1387 117.687 96.384C118.157 96.6293 118.695 96.752 119.303 96.752C119.805 96.752 120.258 96.6667 120.663 96.496C121.079 96.3253 121.442 96.0693 121.751 95.728L122.599 96.72C122.215 97.168 121.735 97.5093 121.159 97.744C120.594 97.9787 119.959 98.096 119.255 98.096ZM127.708 98.096C127.004 98.096 126.332 98 125.692 97.808C125.063 97.616 124.567 97.3813 124.204 97.104L124.844 95.888C125.207 96.1333 125.655 96.3413 126.188 96.512C126.722 96.6827 127.266 96.768 127.82 96.768C128.535 96.768 129.047 96.6667 129.356 96.464C129.676 96.2613 129.836 95.9787 129.836 95.616C129.836 95.3493 129.74 95.1413 129.548 94.992C129.356 94.8427 129.1 94.7307 128.78 94.656C128.471 94.5813 128.124 94.5173 127.74 94.464C127.356 94.4 126.972 94.3253 126.588 94.24C126.204 94.144 125.852 94.016 125.532 93.856C125.212 93.6853 124.956 93.456 124.764 93.168C124.572 92.8693 124.476 92.4747 124.476 91.984C124.476 91.472 124.62 91.024 124.908 90.64C125.196 90.256 125.602 89.9627 126.124 89.76C126.658 89.5467 127.287 89.44 128.012 89.44C128.567 89.44 129.127 89.5093 129.692 89.648C130.268 89.776 130.738 89.9627 131.1 90.208L130.444 91.424C130.06 91.168 129.66 90.992 129.244 90.896C128.828 90.8 128.412 90.752 127.996 90.752C127.324 90.752 126.823 90.864 126.492 91.088C126.162 91.3013 125.996 91.5787 125.996 91.92C125.996 92.208 126.092 92.432 126.284 92.592C126.487 92.7413 126.743 92.8587 127.052 92.944C127.372 93.0293 127.724 93.104 128.108 93.168C128.492 93.2213 128.876 93.296 129.26 93.392C129.644 93.4773 129.991 93.6 130.3 93.76C130.62 93.92 130.876 94.144 131.068 94.432C131.271 94.72 131.372 95.104 131.372 95.584C131.372 96.096 131.223 96.5387 130.924 96.912C130.626 97.2853 130.204 97.5787 129.66 97.792C129.116 97.9947 128.466 98.096 127.708 98.096Z" fill="black"/>
<defs>
<clipPath id="clip0_2_578">
<rect width="48" height="48" fill="white" transform="translate(56 24)"/>
</clipPath>
</defs>
</svg>
